<svg width="500" height="346" viewBox="0 0 500 346" fill="none" xmlns="http://www.w3.org/2000/svg">
<path d="M106.45 118.157L105.381 110.94L108.446 110.349L110.272 115.129L111.591 114.177L111.754 120.463L108.65 121.507L106.45 118.157Z" fill="#B97262"/>
<path d="M152.804 155.651L125.199 148.469L112.412 118.315L106.362 120.703L113.568 159.649L145.367 176.029L152.804 155.651Z" fill="#A9DAFB"/>
<path d="M389.525 152.511L363.369 171.597L340.56 161.742L337.212 167.896L354.487 179.662L364.17 183.281L389.525 171.074V152.511Z" fill="#0F75BC"/>
<path d="M407.539 33.2082L487.643 39.8657C495.058 40.4821 500.569 46.9924 499.953 54.407L495.662 106.042C495.048 113.426 488.586 118.928 481.198 118.357L468.319 117.362L451.932 136.732C451.453 137.298 450.53 136.924 450.58 136.185L451.955 116.002L400.989 111.645C393.588 111.012 388.096 104.509 388.711 97.107L392.999 45.5179C393.614 38.1033 400.125 32.5918 407.539 33.2082Z" fill="#1A3151"/>
<path d="M408.237 48.9003L408.01 51.5664L471.991 57.0245L472.219 54.3584L408.237 48.9003Z" fill="#FFFFEE"/>
<path d="M406.504 69.2284L406.277 71.8945L482.588 78.4044L482.816 75.7383L406.504 69.2284Z" fill="#FFFFEE"/>
<path d="M404.771 89.5556L404.543 92.2217L480.855 98.7316L481.082 96.0655L404.771 89.5556Z" fill="#FFFFEE"/>
<path d="M348.119 242.71L349.654 278.314L345.154 338.852L338.421 339.33L330.239 284.347L318.922 237.821L348.119 242.71Z" fill="#0F75BC"/>
<path d="M338.661 342.166L346.201 345.29L349.583 341.39L345.684 338.008L338.403 338.525L338.661 342.166Z" fill="#1A3151"/>
<path d="M300.454 230.111L298.977 257.023L303.361 337.043L310.103 337.38L320.208 284.897L329.12 227.343L300.454 230.111Z" fill="#0F75BC"/>
<path d="M309.922 340.221L302.449 343.502L298.986 339.675L302.814 336.211L310.104 336.576L309.922 340.221Z" fill="#1A3151"/>
<path d="M339.655 150.831L318.616 148.577C318.616 148.577 306.912 149.828 298.971 177.623C294.552 193.087 293.208 217.45 292.884 236.025C293.381 238.675 296.268 250.281 308.474 248.312C329.435 244.931 340.592 241.55 349.72 243.24C357.495 244.93 356.838 234.225 355.983 226.055L352.885 200.776L339.655 150.831Z" fill="#A9DAFB"/>
<path d="M335.592 124.643C330.289 123.473 324.831 122.426 319.523 123.477C318.36 123.707 317.112 124.112 316.482 125.115C316.237 125.504 316.108 125.953 315.989 126.396C314.649 131.375 312.95 138.757 316.228 143.345C316.853 144.219 317.693 144.914 318.595 145.478C319.801 146.232 321.136 146.744 322.517 147.017C322.232 148.255 321.834 149.467 321.329 150.633C322.543 152.464 328.206 152.683 329.253 150.929C329.312 149.41 329.37 147.892 329.429 146.373C330.118 146.095 330.784 145.756 331.409 145.344C333.829 143.75 335.425 141.332 336.351 138.625C337.359 135.678 338.779 132.877 339.7 129.874C340.036 128.78 340.3 127.531 339.725 126.542C339.112 125.489 337.789 125.13 336.6 124.866C336.265 124.792 335.929 124.717 335.592 124.643Z" fill="#B97262"/>
<path d="M317.942 127.489C320.563 125.804 324.495 125.078 326.96 125.256C334.411 125.796 337.14 131.268 337.538 138.118C339.591 135.51 343.443 132.228 343.675 128.871C343.865 126.123 343.485 122.376 341.946 120.003C340.505 117.783 336.822 116.563 334.632 115.276C332.567 114.064 330.502 112.851 328.437 111.638C328.008 111.386 327.566 111.129 327.075 111.044C326.495 110.943 325.904 111.092 325.334 111.239C320.454 112.5 315.574 113.761 310.694 115.022C309.756 115.265 308.688 115.619 308.343 116.523C308.132 117.073 308.256 117.688 308.382 118.263C308.936 120.796 310 123.386 310.263 125.952C310.562 127.443 311.451 135.085 314.091 134.203C314.866 132.936 314.982 131.374 315.586 130.017C316.031 129.015 316.879 128.173 317.942 127.489Z" fill="#1A3151"/>
<path d="M318.616 148.576L310.84 150.943L282.441 180.694L280.751 190.499L294.327 212.914L297.993 204.698L292.246 188.132L301.374 181.708L313.545 154.323L318.616 148.576Z" fill="#A9DAFB"/>
<path d="M271.306 332.644L271.855 336.915L263.863 342.285L259.042 338.563L262.764 333.743L270.757 328.373L271.306 332.644Z" fill="#0C5E96"/>
<path d="M271.577 331.211L265.412 276.74L272.829 215.761L271.161 202.789L238.035 201.531L236.84 222.643L242.4 276.824L263.322 333.994L271.577 331.211Z" fill="#1A3151"/>
<path d="M234.925 141.263L218.263 145.801L198.992 179.948L208.12 188.4L220.967 173.186L234.925 141.263Z" fill="#0C5E96"/>
<path d="M213.728 207.635L213.641 262.603L224.705 333.364L232.669 333.284L237.046 267.847L247.292 202.351L213.728 207.635Z" fill="#1A3151"/>
<path d="M232.657 336.643L224.088 341.034L219.739 336.771L224.002 332.423L232.614 332.337L232.657 336.643Z" fill="#0C5E96"/>
<path d="M276.257 226.329C276.181 223.947 276.048 221.959 276.029 221.25C275.859 214.86 275.289 208.484 274.489 202.14C273.772 196.454 272.867 182.34 271.895 176.69C271.091 172.024 268.292 160.379 266.269 156.052C261.24 145.291 262.794 144.297 240.698 141.101C231.014 139.701 228.725 145.736 220.809 152.676C220.028 153.36 220.071 157.436 219.89 158.514C219.571 160.415 219.229 162.312 218.837 164.201C218.529 165.685 218.189 167.164 217.808 168.634L217.809 168.634C217.809 168.634 211.163 198.879 206.768 205.303C202.372 211.727 193.292 220.707 208.481 226.19C211.173 227.061 213.881 227.888 216.683 228.331C216.683 228.331 229.105 226.95 235.494 226.998C241.377 227.042 247.285 227.638 253.069 228.635C256.937 229.282 260.884 230.221 264.344 232.028C267.646 233.753 270.028 236.289 273.377 238.074C273.694 238.244 274.042 238.419 274.403 238.368C276.326 238.102 276.417 231.342 276.257 226.329Z" fill="#0C5E96"/>
<path d="M261.438 86.5151C261.438 86.5151 258.272 84.9448 258.286 84.5394C258.3 84.1339 258.833 78.4054 258.833 78.4054L260.908 77.22L261.78 74.7788C261.78 74.7788 259.409 70.6278 259.845 69.4072C260.281 68.1866 263.446 73.5842 263.446 73.5842L264.605 76.889L264.901 82.2254L261.438 86.5151Z" fill="#EFBFA5"/>
<path d="M227.697 168.31L234.174 163.374L232.185 160.514L227.001 162.912L226.688 161.123L221.66 166.022L223.326 169.274L227.697 168.31Z" fill="#EFBFA5"/>
<path d="M226.876 170.053L221.681 163.265L203.796 174.051L208.205 188.451L226.876 170.053Z" fill="#0C5E96"/>
<path d="M240.673 144.137C241.788 144.688 244.419 144.885 247.164 143.81C247.717 143.594 248.091 143.06 248.083 142.466C248.061 140.799 247.927 139.133 247.681 137.484C249.74 136.76 252.119 135.675 252.478 133.522C252.591 132.844 252.474 132.151 252.357 131.474C251.873 128.674 251.389 125.874 250.905 123.074C250.738 122.105 250.56 121.108 250.033 120.278C249.109 118.823 247.315 118.186 245.616 117.89C241.28 117.138 236.555 118.077 233.193 120.917C232.298 121.673 231.489 122.581 231.095 123.684C230.486 125.385 230.942 127.26 231.4 129.007C231.823 130.619 232.247 132.231 232.67 133.844C233.157 135.698 233.86 137.806 235.646 138.501C236.595 138.87 237.715 138.763 238.574 139.309C240.089 140.272 239.885 142.524 240.673 144.137Z" fill="#EFBFA5"/>
<path d="M215.648 116.212C215.222 115.513 214.763 114.838 214.249 114.206C213.137 112.835 211.768 111.66 210.873 110.138C209.978 108.617 209.663 106.554 210.737 105.153C211.43 104.249 212.554 103.797 213.647 103.476C217.248 102.417 221.134 102.344 224.771 103.27C228.235 104.152 231.336 105.613 234.824 104.31C238.101 103.087 240.468 103.585 243.892 104.807C247.598 106.13 252.574 106.442 255.929 108.309C257.329 109.088 258.448 110.307 259.319 111.652C262.338 116.315 262.354 122.743 259.36 127.421C258.688 128.471 257.885 129.43 257.04 130.346C255.291 132.243 253.2 134.584 250.795 135.287C250.738 133.135 252.697 126.35 251.045 124.587C248.423 121.789 242.494 122.764 239.24 123.453C235.692 124.205 232.529 126.718 229.011 127.255C226.48 127.641 223.249 126.4 221.096 125.091C218.439 123.475 217.202 118.764 215.648 116.212Z" fill="#1A3151"/>
<path d="M252.942 143.189L269.974 134.229L258.286 86.5147L266.337 82.165L286.68 134.229L264.901 160.513L252.942 143.189Z" fill="#0C5E96"/>
<path d="M127.892 335.797L127.525 339.413L134.389 343.764L138.372 340.516L135.124 336.533L128.26 332.182L127.892 335.797Z" fill="#1A3151"/>
<path d="M127.627 225.493L126.511 236.475L136.316 285.549L127.632 334.594L134.659 336.758L157.378 278.444L158.624 260.618L155.548 223.688L127.627 225.493Z" fill="#0F75BC"/>
<path d="M180.879 229.232L181.104 275.624L171.961 335.378L165.24 335.332L161.364 280.115L152.537 224.864L180.879 229.232Z" fill="#0F75BC"/>
<path d="M165.26 338.168L172.504 341.851L176.163 338.24L172.552 334.582L165.284 334.533L165.26 338.168Z" fill="#1A3151"/>
<path d="M186.543 222.423C181.694 207.402 181.178 191.629 179.767 175.981C179.349 171.364 178.904 166.645 176.983 162.427C174.776 157.583 171.127 155.026 166.877 153.63C161.467 151.852 155.083 151.954 149.458 151.611C144.121 151.444 139.4 171.506 133.956 181.231C130.62 187.191 127.182 192.463 124.932 198.965C122.772 205.204 120.698 211.554 119.441 218.046C117.544 227.848 112.692 234.692 117.326 238.027C117.751 238.167 118.16 238.306 118.548 238.445C126.15 241.168 134.015 243.184 142.024 244.241C149.129 245.179 156.345 245.35 163.48 244.647C173.245 243.684 182.707 242.305 191.316 237.211C189.726 232.282 188.135 227.353 186.543 222.423Z" fill="#A9DAFB"/>
<path d="M146.849 136.678C149.889 127.5 163.284 124.303 166.398 134.971C167.334 138.177 167.897 141.578 167.261 144.856C166.624 148.134 164.621 151.28 161.564 152.624C161.546 152.632 161.529 152.638 161.512 152.646C161.631 153.497 161.751 154.347 161.87 155.198C161.895 155.381 161.917 155.583 161.814 155.736C161.697 155.911 161.464 155.956 161.257 155.988C160.241 156.139 159.225 156.291 158.21 156.442C157.706 156.517 157.182 156.591 156.697 156.435C155.636 156.096 155.195 154.824 155.148 153.711C155.137 153.445 155.14 153.176 155.143 152.906C149.132 150.847 144.861 142.679 146.849 136.678Z" fill="#B97262"/>
<path d="M163.168 121.005C165.621 120.641 167.709 123.019 169.972 124.268C171.855 125.307 173.99 125.582 175.941 126.443C177.892 127.304 179.811 129.101 179.851 131.351C181.829 130.322 183.971 129.267 186.186 129.694C188.402 130.121 190.459 132.766 189.576 134.947C188.786 136.899 186.238 137.359 185.391 139.281C184.05 142.322 187.674 147.044 185.201 149.06C184.606 149.545 183.797 149.662 183.213 150.161C182.487 150.781 182.254 151.846 181.931 152.793C180.467 157.083 176.141 159.886 171.87 159.313C169.214 158.068 167.096 155.498 166.147 152.554C165.003 149.007 166.901 147.768 167.221 144.438C167.572 140.798 166.414 136.944 164.123 134.118C162.632 132.278 160.498 130.693 158.243 130.478C157.326 130.391 157.615 131.155 156.584 130.446C156.141 130.142 155.537 128.99 155.412 128.439C157.878 126.454 159.941 121.485 163.168 121.005Z" fill="#1A3151"/>
<path d="M136.641 125.724C135.375 126.077 134.001 126.025 132.796 126.554C130.986 127.347 131.095 129.226 130.583 130.859C130.015 132.666 129.191 135.092 127.998 136.498C127.14 137.511 125.937 138.089 124.891 138.871C123.844 139.652 122.882 140.806 122.904 142.215C122.926 143.55 123.823 144.749 123.954 146.081C124.114 148.069 123.771 149.087 124.383 151.118C124.7 152.167 125.054 153.277 125.84 153.992C126.877 154.934 128.354 154.915 129.651 154.699C130.948 154.482 132.289 154.123 133.568 154.552C136.341 155.485 135.823 158.29 136.561 160.641C137.685 164.219 141.834 166.307 145.007 165.035C147.698 163.956 149.255 160.831 149.134 157.747C149.074 156.203 148.458 154.763 148.414 153.218C148.371 151.727 149.211 149.663 147.86 148.48C147.531 148.192 147.109 148.04 146.813 147.711C146.574 147.446 146.441 147.09 146.358 146.734C146.071 145.502 146.342 144.158 147.068 143.215C147.59 142.537 148.338 142.042 148.658 141.224C149.025 140.287 148.734 139.191 148.672 138.155C148.523 135.652 149.892 133.197 151.977 132.23C153.351 131.593 154.589 131.217 155.791 130.248C155.974 130.101 158.707 127.686 158.777 128.207C158.655 127.299 158.124 126.504 157.587 125.775C156.704 124.577 155.723 123.41 154.479 122.692C150.456 120.372 150.262 125.765 147.033 125.055C146.254 124.884 145.668 124.17 144.966 123.744C143.642 122.939 142.015 123.226 140.661 123.83C139.307 124.434 138.066 125.327 136.641 125.724Z" fill="#1A3151"/>
<path d="M400.511 246.169L430.057 236.254L422.564 287.302L424.964 335.034H419.587L407.06 292.648L401.444 250.515L400.511 246.169Z" fill="#3B455A"/>
<path d="M419.27 334.398L425.256 334.418L426.639 339.51L426.487 339.551L426.524 339.555L416.467 345.132L411.75 345.52L411.307 340.129L412.603 339.235L419.27 334.398Z" fill="#1A3151"/>
<path d="M377.527 246.478L384 337.38L389.091 338.008L396.741 287.67L408.171 240.798L377.527 246.478Z" fill="#3B455A"/>
<path d="M383.746 336.466L375.956 340.593L376.571 344.231L390.328 342.559L389.671 337.324L383.746 336.466Z" fill="#1A3151"/>
<path d="M438.115 260.918C438.732 246.05 425.453 198.77 425.453 198.77L425.455 198.769C424.05 194.327 422.979 189.808 422.338 185.277C421.881 182.052 412.216 145.397 412.858 145.35C406.2 145.836 393.364 144.262 388.433 148.99C388.292 149.125 388.158 149.265 388.03 149.411C384.185 153.796 382.188 162.673 380.37 168.136C377.982 175.313 376.148 182.674 374.896 190.134C373.801 196.656 373.15 203.245 372.69 209.84C372.295 215.51 372.608 221.148 372.416 226.725C372.202 232.899 370.35 239.593 368.968 245.6C367.578 251.649 365.811 257.626 363.368 263.339C369.978 266.265 377.34 267.055 384.568 267.083C391.796 267.11 399.015 266.413 406.241 266.524C412.353 266.618 418.539 267.284 424.527 266.059C429.289 265.084 433.685 262.964 438.115 260.918Z" fill="#0F75BC"/>
<path d="M390.066 129.804C387.028 131.305 383.861 135.175 384.057 138.777C384.15 140.512 385.11 141.86 385.137 143.72C385.204 147.388 390.766 151.228 387.362 154.766C385.612 156.584 382.878 156.94 380.367 157.192C380.063 157.223 379.743 157.251 379.461 157.132C378.997 156.937 378.771 156.386 378.781 155.883C378.792 155.379 378.986 154.9 379.139 154.42C380.736 149.4 378.324 143.545 378.04 138.429C377.755 133.323 378.964 127.811 383.15 124.483C385.957 125.339 388.048 126.525 389.428 129.115L390.066 129.804Z" fill="#1A3151"/>
<path d="M391.954 151.594C388.493 151.157 385.551 148.603 383.939 145.51C382.327 142.417 381.879 138.843 381.862 135.355C381.807 123.746 396.172 122.963 401.947 131.25C406.979 138.472 402.018 152.862 391.954 151.594Z" fill="#EFBFA5"/>
<path d="M409.344 153.009C407.561 152.501 405.795 151.941 404.415 150.435C402.184 148.001 401.518 143.416 400.467 140.383C399.359 137.185 398.05 133.73 395.144 131.997C393.246 130.865 391.335 130.952 389.256 131.325C387.832 131.58 387.882 132.128 386.533 131.601C385.498 131.198 384.37 129.608 383.958 128.63C383.262 126.981 383.598 125.032 384.471 123.469C385.815 121.064 387.687 119.634 390.31 119.059C399.519 117.041 407.538 121.163 411.919 129.687C414.024 133.785 414.045 138.803 416.202 142.721C417.535 145.139 419.525 146.535 420.735 149.151C423.873 155.941 429.602 164.288 430.748 171.721C430.791 171.996 430.818 172.304 430.649 172.526C430.305 172.976 429.593 172.649 429.148 172.299C426.547 170.253 423.947 168.207 421.347 166.161C420.325 165.358 419.29 164.54 418.53 163.486C416.638 160.862 416.592 156.998 414.05 154.997C412.662 153.906 410.996 153.479 409.344 153.009Z" fill="#1A3151"/>
<path d="M452.475 138.947C454.215 139.271 458.746 138.058 459.787 136.459C462.19 132.768 456.489 133.904 454.43 133.855C454.666 133.139 454.916 132.456 455.007 131.724C455.09 131.052 448.973 132.795 448.384 133.436C446.969 134.975 447.614 136.136 447.742 138.081C449.321 138.331 450.899 138.652 452.475 138.947Z" fill="#EFBFA5"/>
<path d="M404.367 176.051L437.796 170.489L453.189 139.272L447.07 134.229L430.78 155.846L413.761 155.122L398.007 155.805L404.367 176.051Z" fill="#0F75BC"/>
<path d="M68.853 244.239L39.6021 233.482L45.6312 284.724L42.1379 328.933L42.0439 329.228L42.1136 329.235L41.8803 332.182L47.0391 333.119L60.9754 290.513L67.7954 248.557L68.853 244.239Z" fill="#3B455A"/>
<path d="M47.5759 331.897L41.5916 331.745L40.0632 336.794L40.2141 336.839L40.1759 336.843L50.0698 342.706L54.7741 343.229L55.3716 337.852L54.1007 336.922L47.5759 331.897Z" fill="#1A3151"/>
<path d="M88.7779 245.119L79.733 335.512L74.6555 336.757L68.3918 285.743L58.3088 238.563L88.7779 245.119Z" fill="#3B455A"/>
<path d="M79.9839 334.892L87.653 339.24L86.9342 342.858L73.2312 340.793L74.0373 335.579L79.9839 334.892Z" fill="#1A3151"/>
<path d="M102.492 267.152C104.343 265.867 104.382 263.629 104.379 261.388C104.373 257.18 103.616 252.878 102.651 248.788C100.814 241.116 98.7322 231.875 97.8165 221.934C95.4498 196.239 87.3359 178.997 87.3359 178.997L84.7177 172.015C84.1971 171.107 83.6577 170.209 83.0934 169.324C79.8238 164.193 74.1456 155.473 68.0734 154.045C67.9468 154.015 67.8189 153.986 67.6904 153.958C61.3062 152.557 53.125 153.207 47.3553 156.311C46.2607 156.9 45.2868 157.684 44.3207 158.464C41.4995 160.74 39.1983 161.972 37.9819 165.441C36.9262 168.452 36.6801 171.738 36.0983 174.858C34.9153 181.198 34.2098 187.614 33.265 193.991C31.4935 205.949 29.9892 217.945 28.0947 229.885C27.1195 236.03 26.1371 242.186 25.6765 248.395C25.2692 253.885 20.3165 259.46 17.5335 264.38C16.565 266.092 30.4741 270.528 31.7201 270.818C37.4898 272.161 43.6274 271.818 49.5753 271.846C62.6092 271.905 75.6456 271.503 88.651 270.641C92.9728 270.354 98.2989 269.529 102.133 267.378C102.26 267.305 102.379 267.23 102.492 267.152Z" fill="#0F75BC"/>
<path d="M60.5311 153.256C60.5311 153.256 53.1893 151.274 52.1747 167.84C51.1602 184.406 49.4699 226.328 47.1032 237.823C44.7365 249.319 41.1868 271.865 41.1868 271.865L63.6692 272.646L89.3638 270.617C89.3638 270.617 80.5735 254.389 79.2214 242.894C77.8692 231.4 80.2353 188.125 74.488 171.897C68.7408 155.669 67.5353 153.548 60.5311 153.256Z" fill="#CADFEF"/>
<path d="M93.759 190.154L95.4499 192.182L101.535 183.73L77.193 156.683L68.0651 153.979L72.4602 165.811L93.759 190.154Z" fill="#0F75BC"/>
<path d="M73.4141 183.155L68.0717 179.083L69.7123 176.724L73.9881 178.702L74.2463 177.226L78.3935 181.267L77.019 183.95L73.4141 183.155Z" fill="#EFBFA5"/>
<path d="M94.3408 182.114L94.1014 182.64L77.4481 179.428L74.993 184.89L95.4499 192.182L94.3408 182.114Z" fill="#0F75BC"/>
<path d="M70.7718 140.131C71.8827 143.466 70.2748 147.023 68.8633 150.063C67.6118 152.758 67.1766 154.532 70.3536 155.26C72.1439 155.669 75.3203 156.434 76.8906 155.063C78.0791 154.025 77.4112 150.818 76.833 149.545C76.3912 148.572 75.2221 148.078 74.8063 147.094C74.6348 146.688 74.6106 146.237 74.6039 145.797C74.5791 143.998 74.8282 142.197 75.3391 140.472C75.6863 139.301 76.1566 138.151 76.2615 136.934C76.4136 135.17 75.1657 133.114 74.51 131.493C73.29 128.477 69.0445 124.431 65.49 126.799C64.6803 127.338 64.2094 128.249 63.8148 129.138C63.5797 129.669 63.356 130.223 63.3488 130.804C63.3215 133.12 65.4354 133.511 66.896 134.612C68.6973 135.972 70.0627 138.002 70.7718 140.131Z" fill="#1A3151"/>
<path d="M64.01 153.145C67.0936 152.419 69.5045 149.83 70.6627 146.881C71.8209 143.933 71.8815 140.663 71.5615 137.512C70.4954 127.024 57.4488 127.697 53.0312 135.735C49.1809 142.741 55.0445 155.258 64.01 153.145Z" fill="#EFBFA5"/>
<path d="M64.0064 152.015C63.9548 153.21 63.9027 154.405 63.8512 155.6C63.8439 155.775 63.8294 155.966 63.707 156.092C63.5676 156.234 63.3427 156.237 63.1439 156.23C62.1706 156.196 61.1967 156.163 60.2233 156.129C59.7409 156.112 59.2391 156.091 58.8136 155.862C57.8821 155.362 57.69 154.1 57.8385 153.054C57.987 152.007 58.3627 150.952 58.1403 149.919C60.1506 150.909 62.0597 148.671 64.0706 149.661L64.0064 152.015Z" fill="#EFBFA5"/>
<path d="M59.7989 119.331C56.3735 120.494 54.1765 123.959 50.8335 125.343C48.9165 126.136 46.6474 126.237 45.0832 127.601C41.5777 130.656 44.3953 137.067 41.5153 140.717C40.9165 141.477 40.1092 142.05 39.508 142.808C38.2111 144.44 38.042 146.67 37.9256 148.752C37.8996 149.221 37.8947 149.731 37.9759 150.202C38.4262 155.011 45.4068 154.705 48.1795 154.397C51.2226 154.059 50.208 152.368 50.208 152.368L50.0977 152.233C49.8056 150.281 50.6086 148.199 52.1426 146.955C52.7117 146.493 53.385 146.126 53.7862 145.513C54.6868 144.136 53.8268 142.313 53.9595 140.674C54.4929 134.072 65.5741 135.487 68.7014 130.786C72.5365 125.022 66.2686 117.133 59.7989 119.331Z" fill="#1A3151"/>
<path d="M96.0421 28.1114L0.608739 35.8617C0.240861 35.8914 -0.0300484 36.2351 0.00267889 36.6284L5.99117 107.712C6.0245 108.105 6.34935 108.4 6.71722 108.37L28.2875 106.619L44.8099 125.81C45.2924 126.37 46.2239 126 46.1736 125.267L44.7954 105.278L82.1045 102.248C93.5439 101.319 101.981 90.646 100.95 78.4084L96.7681 28.7702C96.7342 28.3763 96.4093 28.0817 96.0421 28.1114Z" fill="#499BD3"/>
<path d="M85.4149 43.3667L25.9694 48.194L25.7646 45.7625L85.2094 40.9346L85.4149 43.3667Z" fill="white"/>
<path d="M86.9767 61.91L16.0755 67.6682L15.8707 65.2361L86.7719 59.4785L86.9767 61.91Z" fill="white"/>
<path d="M88.5391 80.4536L17.638 86.2112L17.4331 83.7791L88.3343 78.0215L88.5391 80.4536Z" fill="white"/>
<path d="M288.444 52.5045C288.444 31.9172 312.088 15.2275 341.253 15.2275C370.42 15.2275 394.063 31.9172 394.063 52.5045C394.063 73.0918 370.419 89.7815 341.253 89.7815C340.094 89.7815 338.944 89.7536 337.804 89.7009C337.286 89.6772 336.882 90.1427 336.975 90.6524L341.183 113.603C341.33 114.403 340.334 114.893 339.79 114.288L312.312 83.7566C312.24 83.6766 312.152 83.6124 312.055 83.5663C297.825 76.8887 288.444 65.4712 288.444 52.5045Z" fill="#9CC1DA"/>
<path d="M363.719 57.0663C360.673 57.0663 360.668 52.333 363.719 52.333C366.765 52.3324 366.77 57.0663 363.719 57.0663Z" fill="white"/>
<path d="M342.418 57.0663C339.372 57.0663 339.367 52.333 342.418 52.333C345.464 52.3324 345.469 57.0663 342.418 57.0663Z" fill="white"/>
<path d="M315.792 57.0663C312.745 57.0663 312.741 52.333 315.792 52.333C318.837 52.3324 318.842 57.0663 315.792 57.0663Z" fill="white"/>
<path d="M23.7409 107.662L25.7421 100.646L28.7772 101.371L28.4706 106.479L30.0651 106.155L27.6215 111.95L24.3645 111.622L23.7409 107.662Z" fill="#EFBFA5"/>
<path d="M50.5172 160.93L28.3275 143.008L29.1069 110.265L22.6106 109.945L13.1221 148.399L35.3421 176.431L50.5172 160.93Z" fill="#0F75BC"/>
<path d="M335.192 152.629L349.654 137.006L346.247 94.664L352.601 91.873L361.246 134.825L358.6 145.53L342.387 167.896L335.192 152.629Z" fill="#A9DAFB"/>
<path d="M352.601 91.8731V82.1658L348.161 79.5713L346.024 83.5095V87.4622L343.72 88.4107L346.247 94.664L352.601 91.8731Z" fill="#B97262"/>
<path d="M199.454 0.322335L276.753 0.173853C283.908 0.159914 289.719 5.949 289.733 13.1041L289.829 62.9308C289.842 70.0569 284.098 75.8556 276.973 75.9102L264.551 76.0054L250.427 95.9017C250.014 96.4829 249.099 96.1993 249.088 95.4872L248.76 76.0356L199.569 76.0144C192.426 76.0114 186.633 70.2272 186.619 63.0841L186.523 13.3017C186.509 6.14718 192.298 0.335668 199.454 0.322335Z" fill="#499BD3"/>
<path d="M263.148 15.3174H201.397V17.8901H263.148V15.3174Z" fill="white"/>
<path d="M275.043 34.9385H201.391V37.5112H275.043V34.9385Z" fill="white"/>
<path d="M275.038 54.5576H201.386V57.1303H275.038V54.5576Z" fill="white"/>
<path d="M197.911 67.4848C197.749 57.6236 189.677 49.752 179.84 49.8042C179.848 49.4939 179.854 49.1836 179.849 48.8702C179.65 36.8266 169.726 27.2242 157.682 27.423C151.129 27.5308 145.303 30.5224 141.381 35.1642C137.615 31.0114 132.151 28.4375 126.106 28.5369C115.346 28.7145 106.697 37.2854 106.286 47.9078C105.831 47.8805 105.371 47.8648 104.907 47.8726C94.9772 48.0363 87.0603 56.2187 87.2245 66.1484C87.356 74.1363 92.6784 80.8175 99.9239 83.0411C99.0602 85.1551 98.5996 87.4739 98.6396 89.9017C98.7984 99.5108 106.717 107.172 116.326 107.013C117.063 107.001 117.787 106.941 118.498 106.841L118.806 125.451C118.831 126.258 119.872 126.564 120.158 126.148L131.682 109.403C134.464 111.184 137.78 112.197 141.329 112.138C147.768 112.032 153.328 108.439 156.251 103.191C159.268 105.011 162.813 106.038 166.596 105.976C177.326 105.799 185.882 96.9563 185.705 86.226C185.697 85.7593 185.667 85.2981 185.627 84.8405C192.873 82.4242 198.044 75.5284 197.911 67.4848Z" fill="#B7E2FE"/>
<path d="M163.67 69.9564C161.015 70 161.079 74.1267 163.738 74.0831C166.393 74.0394 166.33 69.9128 163.67 69.9564Z" fill="white"/>
<path d="M145.102 70.264C142.447 70.3077 142.51 74.4343 145.17 74.3907C147.825 74.3464 147.761 70.2204 145.102 70.264Z" fill="white"/>
<path d="M121.891 70.6468C119.236 70.6905 119.3 74.8171 121.959 74.7735C124.614 74.7293 124.55 70.6026 121.891 70.6468Z" fill="white"/>
<path d="M179.957 102.055L175.939 95.9658L173.262 97.5695L175.09 102.348L173.472 102.519L177.545 107.311L180.553 106.019L179.957 102.055Z" fill="#B97262"/>
<path d="M166.821 156.557L186.211 137.143L175.622 106.15L181.721 103.893L202.333 137.714L175.772 170.636L166.821 156.557Z" fill="#A9DAFB"/>
</svg>
