<svg width="12" height="8" viewBox="0 0 12 8" fill="none" xmlns="http://www.w3.org/2000/svg">
<path d="M0.505792 0.829124C0.135292 1.10204 0.0561256 1.62371 0.329042 1.99429C0.541042 2.28212 0.753043 2.55571 0.939043 2.79404C1.31029 3.26971 1.82137 3.90687 2.37671 4.54637C2.92838 5.18179 3.54013 5.8387 4.11113 6.34328C4.39571 6.59473 4.68988 6.82597 4.97671 6.99887C5.24063 7.15799 5.60329 7.33337 6.00004 7.33337C6.39679 7.33337 6.75954 7.15799 7.02346 6.99887C7.31029 6.82597 7.60438 6.59473 7.88896 6.34328C8.46003 5.8387 9.07173 5.18179 9.62343 4.54637C10.1787 3.90687 10.6898 3.26971 11.0611 2.79404C11.2471 2.55571 11.4591 2.28212 11.6711 1.99429C11.944 1.62371 11.8649 1.10204 11.4943 0.829124C11.3453 0.719374 11.1719 0.666541 11.0001 0.666708L6.00004 0.666708H1.00004C0.828208 0.666541 0.654792 0.719374 0.505792 0.829124Z" fill="#444444"/>
</svg>
