<svg width="20" height="20" viewBox="0 0 20 20" fill="none" xmlns="http://www.w3.org/2000/svg">
<path fill-rule="evenodd" clip-rule="evenodd" d="M1.04163 9.99996C1.04163 14.9475 5.05241 18.9583 9.99996 18.9583C14.9475 18.9583 18.9583 14.9475 18.9583 9.99996C18.9583 5.05241 14.9475 1.04163 9.99996 1.04163C5.05241 1.04163 1.04163 5.05241 1.04163 9.99996ZM9.73488 9.18938C9.94071 9.21704 10.2255 9.29113 10.4672 9.53279C10.7089 9.77446 10.783 10.0592 10.8106 10.2651C10.8335 10.4356 10.8334 10.634 10.8333 10.8005V10.8333V14.1666C10.8333 14.6269 10.4602 15 9.99996 15C9.53971 15 9.16663 14.6269 9.16663 14.1666V10.8333C8.70638 10.8333 8.33329 10.4602 8.33329 9.99996C8.33329 9.53971 8.70638 9.16663 9.16663 9.16663H9.19946C9.36604 9.16654 9.56429 9.16638 9.73488 9.18938ZM9.99613 5.83329C9.53796 5.83329 9.16654 6.20639 9.16654 6.66663C9.16654 7.12686 9.53796 7.49996 9.99613 7.49996H10.0036C10.4618 7.49996 10.8332 7.12686 10.8332 6.66663C10.8332 6.20639 10.4618 5.83329 10.0036 5.83329H9.99613Z" fill="#ECBC00"/>
</svg>
